<svg xmlns="http://www.w3.org/2000/svg" width="219.272" height="49.884" viewBox="0 0 219.272 49.884">
  <g id="logo" transform="translate(-0.016 -0.014)">
    <g id="Group_40567" data-name="Group 40567" transform="translate(0.016 0.014)">
      <path id="Path_107605" data-name="Path 107605" d="M1840.242,1450.406a19.078,19.078,0,0,1-18.661-32.318,19.053,19.053,0,0,0,5.174,17.44q.357.356.729.694.107.493.238.987A19.048,19.048,0,0,0,1840.242,1450.406Z" transform="translate(-1815.276 -1401.462)" fill="#adb3bc"/>
      <path id="Path_107606" data-name="Path 107606" d="M2492.454,1450.691a18.955,18.955,0,0,1-10.84-.286,19.051,19.051,0,0,0,12.515-13.2q.134-.493.235-.987c.251-.226.495-.456.735-.7a19.051,19.051,0,0,0,5.171-17.44,19.078,19.078,0,0,1-7.817,32.6Z" transform="translate(-2456.646 -1401.463)" fill="#adb3bc"/>
      <path id="Path_107607" data-name="Path 107607" d="M2166.863,1901.751q-.1.493-.236.987a12.535,12.535,0,1,1-25.034,0q-.133-.494-.238-.987A19.072,19.072,0,0,0,2166.863,1901.751Z" transform="translate(-2129.145 -1866.989)" fill="#6e7477"/>
      <path id="Path_107608" data-name="Path 107608" d="M2021.212,1030.01a19.054,19.054,0,0,0-17.689-4.239c-.329.089-.65.182-.968.288-.319-.1-.644-.2-.97-.288a19.059,19.059,0,0,0-17.691,4.239,19.078,19.078,0,0,1,37.319,0Z" transform="translate(-1977.587 -1014.907)" fill="#adb3bc"/>
      <path id="Path_107609" data-name="Path 107609" d="M1979.32,1310.719q-.373-.338-.73-.694a12.535,12.535,0,1,1,12.518-21.679c.329.089.651.185.97.289a19.078,19.078,0,0,0-12.759,22.084Z" transform="translate(-1967.111 -1276.868)" fill="#6e7477"/>
      <path id="Path_107610" data-name="Path 107610" d="M2495.1,1310.025c-.241.24-.483.471-.735.7a19.072,19.072,0,0,0-12.751-22.087c.318-.109.641-.2.97-.29a12.535,12.535,0,1,1,12.517,21.679Z" transform="translate(-2456.646 -1276.868)" fill="#6e7477"/>
    </g>
    <path id="Path_107611" data-name="Path 107611" d="M7.384,14.921a6.184,6.184,0,0,1-3.216-.894,6.688,6.688,0,0,1-2.39-2.406,6.441,6.441,0,0,1,0-6.515,6.707,6.707,0,0,1,2.39-2.4,6.25,6.25,0,0,1,5.686-.387,6.461,6.461,0,0,1,2.083,1.425l-.977,1A5.068,5.068,0,0,0,9.328,3.567a4.715,4.715,0,0,0-4.442.286A5.307,5.307,0,0,0,3.043,5.77a5.214,5.214,0,0,0,0,5.188,5.405,5.405,0,0,0,1.843,1.914,4.686,4.686,0,0,0,4.442.295,5.068,5.068,0,0,0,1.632-1.18l.977,1A6.738,6.738,0,0,1,9.853,14.4,6.1,6.1,0,0,1,7.384,14.921Zm12.626,0a6.184,6.184,0,0,1-3.216-.894,6.688,6.688,0,0,1-2.387-2.406,6.441,6.441,0,0,1,0-6.515,6.707,6.707,0,0,1,2.387-2.4,6.184,6.184,0,0,1,3.216-.894,6.12,6.12,0,0,1,3.216.894,6.755,6.755,0,0,1,2.368,2.4,6.441,6.441,0,0,1,0,6.515,6.732,6.732,0,0,1-2.368,2.406,6.12,6.12,0,0,1-3.216.894Zm0-1.327a4.63,4.63,0,0,0,2.5-.719,5.329,5.329,0,0,0,1.834-1.917,5.306,5.306,0,0,0-1.834-7.105,4.75,4.75,0,0,0-4.994,0A5.307,5.307,0,0,0,15.67,5.77a5.214,5.214,0,0,0,0,5.188,5.405,5.405,0,0,0,1.842,1.914,4.63,4.63,0,0,0,2.5.72Zm9.4-11.557h1.437l4.7,8.828,4.7-8.829h1.441V14.7H40.246V5.134l-4.7,8.828-4.7-8.828V14.7H29.408Zm16.164,0h5.142a5.355,5.355,0,0,1,2.36.516A4.13,4.13,0,0,1,54.761,4a3.7,3.7,0,0,1,.617,2.092,3.7,3.7,0,0,1-.617,2.092,4.13,4.13,0,0,1-1.686,1.447,5.355,5.355,0,0,1-2.36.516h-3.7V14.7H45.572ZM50.46,8.783a4.062,4.062,0,0,0,2.516-.719,2.339,2.339,0,0,0,.95-1.974,2.339,2.339,0,0,0-.95-1.974A4.062,4.062,0,0,0,50.46,3.4H47.01V8.783Zm15.961,3.042H59.359L58.087,14.7H56.52L62.106,2.038h1.567L69.257,14.7H67.69Zm-.593-1.364L62.9,3.806l-2.948,6.654ZM71.6,2.038h1.437l7.852,10.307V2.038h1.437V14.7H80.886L73.034,4.393V14.7H71.6Zm18.063,7.5-5.105-7.5h1.788l4.073,6.14,4.111-6.14h1.732l-5.089,7.5V14.7H89.66Zm22.117,3.8V14.7h-8.348V2.038h1.437V13.331Zm7.852,1.585a6.184,6.184,0,0,1-3.216-.894,6.688,6.688,0,0,1-2.387-2.406,6.441,6.441,0,0,1,0-6.515,6.707,6.707,0,0,1,2.387-2.4,6.184,6.184,0,0,1,3.216-.894,6.12,6.12,0,0,1,3.216.894,6.755,6.755,0,0,1,2.368,2.4,6.441,6.441,0,0,1,0,6.515,6.732,6.732,0,0,1-2.368,2.406,6.12,6.12,0,0,1-3.216.894Zm0-1.327a4.63,4.63,0,0,0,2.5-.719,5.329,5.329,0,0,0,1.834-1.917,5.306,5.306,0,0,0-1.834-7.105,4.75,4.75,0,0,0-4.994,0,5.307,5.307,0,0,0-1.843,1.917,5.214,5.214,0,0,0,0,5.188,5.406,5.406,0,0,0,1.843,1.917,4.63,4.63,0,0,0,2.5.718ZM134.39,8.029h5.069v4.954a6.374,6.374,0,0,1-2.239,1.41,7.378,7.378,0,0,1-2.682.525,6.184,6.184,0,0,1-3.216-.894,6.688,6.688,0,0,1-2.387-2.406,6.441,6.441,0,0,1,0-6.515,6.707,6.707,0,0,1,2.387-2.4,6.184,6.184,0,0,1,3.216-.894,7.456,7.456,0,0,1,2.691.525,6.17,6.17,0,0,1,2.23,1.41l-.977,1a4.957,4.957,0,0,0-1.788-1.161,5.786,5.786,0,0,0-2.157-.439,4.674,4.674,0,0,0-2.5.709A5.307,5.307,0,0,0,130.2,5.771a5.214,5.214,0,0,0,0,5.188,5.405,5.405,0,0,0,1.84,1.913,4.63,4.63,0,0,0,2.5.719,5.688,5.688,0,0,0,1.834-.322,5.738,5.738,0,0,0,1.645-.857V9.392h-3.63Zm13.842,6.893a6.184,6.184,0,0,1-3.216-.894,6.688,6.688,0,0,1-2.387-2.406,6.441,6.441,0,0,1,0-6.515,6.707,6.707,0,0,1,2.387-2.4,6.184,6.184,0,0,1,3.216-.894,6.12,6.12,0,0,1,3.216.894,6.755,6.755,0,0,1,2.368,2.4,6.44,6.44,0,0,1,0,6.515,6.732,6.732,0,0,1-2.368,2.406,6.12,6.12,0,0,1-3.215.893Zm0-1.327a4.63,4.63,0,0,0,2.5-.719,5.329,5.329,0,0,0,1.834-1.917,5.306,5.306,0,0,0-1.834-7.105,4.75,4.75,0,0,0-4.994,0,5.306,5.306,0,0,0-1.843,1.917,5.214,5.214,0,0,0,0,5.188,5.406,5.406,0,0,0,1.843,1.917,4.63,4.63,0,0,0,2.5.717Z" transform="translate(64.587 17.833)" fill="#35393b"/>
  </g>
</svg>
