<svg enable-background="new 0 0 369.1 369.1" viewBox="0 0 369.1 369.1" xmlns="http://www.w3.org/2000/svg"><g clip-rule="evenodd" fill-rule="evenodd"><ellipse cx="184.5" cy="184.5" fill="#158bc2" rx="184.5" ry="184.5" transform="matrix(.1597 -.9872 .9872 .1597 -27.1027 337.2413)"/><path d="m146.1 293.6c21.2 0 25.2-13.8 39.2-13.9 14 .1 18 13.9 39.2 13.9 23.8 0 44.9-34.2 51.8-79 3 5.4 6 10.8 8.5 15.8 10.1 20.2 21.4 19.4 28 15.6 6.6-3.7 9.7-17.6-.9-33.2-6.4-9.4-21.3-22.8-33.3-30.7-.9-48.6-42.3-81.2-93.3-81.6-16.6.1-32.2 3.6-45.7 10-2.1 1-5.4 1-6.8-.8-3.8-5-8.3-8.4-12.5-10.4-3-1.5-5.3-2.6-5.3-5.4 0-2.5-.3-5.1-1.2-7.6-3.9-11.6-17.4-18.3-29.2-14.3s-17.4 17-13.4 28.8 16.7 18.2 28.5 14.2c2.5-.8 4.7-2 6.6-3.5s3.4-2 6.2-2c4.1 0 13.8 8.2 8.2 13.1-16.6 14.7-28 34.4-28.7 58.6-12.3 7.7-28.2 21.8-34.9 31.6-10.6 15.6-7.5 29.5-.9 33.2s17.9 4.5 28-15.6c2.8-5.6 6.3-11.8 9.7-17.9 6.6 45.8 28 81.1 52.2 81.1" fill="#fff"/><path d="m263.4 155.1c1.9-.3 3.9 1.2 4.6 3.4s-.3 4.2-2.1 4.5c-1.9.3-3.9-1.2-4.6-3.4-.7-2.1.2-4.2 2.1-4.5m-75.2-26c-16.6 3.4-21.7-12.6-.8-17.7 26.3-6.3 63.6 10.8 74.8 34.4 3 6.3-1.7 8.6-6.8 2.3-14-17.4-39.4-24.7-67.2-19z" fill="#158bc2"/></g></svg>