<svg xmlns="http://www.w3.org/2000/svg" xmlns:xlink="http://www.w3.org/1999/xlink"  viewBox="0 0 61 61">
  <defs>
    <clipPath id="clip-path">
      <rect id="Rectangle_10200" data-name="Rectangle 10200" width="61" height="61" transform="translate(-0.001 0)" fill="#158bc2"/>
    </clipPath>
  </defs>
  <g id="icon-1" transform="translate(-0.35 0.15)">
    <rect id="Rectangle_8522" data-name="Rectangle 8522" width="61" height="61" transform="translate(0.35 -0.149)" fill="#158bc2" opacity="0"/>
    <g id="Group_39014" data-name="Group 39014" transform="translate(0.351 -0.15)">
      <g id="Group_39014-2" data-name="Group 39014" transform="translate(0 0)" clip-path="url(#clip-path)">
        <path id="Path_105373" data-name="Path 105373" d="M59.96,29.244l-2.779-.053-.026-.4A26.978,26.978,0,0,0,32.034,3.67l-.412-.026V1.1a1.159,1.159,0,0,0-.393-.8,1.192,1.192,0,0,0-1.987.849V3.641l-.41.026A26.974,26.974,0,0,0,3.714,28.785l-.026.412h-2.5a1.19,1.19,0,0,0,0,2.38h2.5l.026.41a26.968,26.968,0,0,0,25.118,25.12l.41.026v2.5a1.191,1.191,0,0,0,2.382,0v-2.5l.412-.026a26.977,26.977,0,0,0,25.12-25.12l.026-.41h2.536a1.191,1.191,0,0,0,.241-2.334m-7.644,2.334,1.055,0,0,0H54.8l-.035.472A24.7,24.7,0,0,1,32.1,54.724l-.472.035V52.23a1.188,1.188,0,0,0-1.187-1.1,1.208,1.208,0,0,0-1.187,1.154v2.479l-.469-.035A24.7,24.7,0,0,1,6.111,32.058l-.035-.472H8.605a1.191,1.191,0,0,0,1.1-1.248,1.2,1.2,0,0,0-1.156-1.123H6.076l.035-.472A24.689,24.689,0,0,1,28.781,6.076l.469-.035V8.535a1.191,1.191,0,1,0,2.382,0V6.021l.472.035a24.687,24.687,0,0,1,22.67,22.67l.035.472H52.315a1.19,1.19,0,0,0,0,2.38" transform="translate(-0.414 0.069)" fill="#158bc2"/>
        <path id="Path_105374" data-name="Path 105374" d="M34.279,30.2a.855.855,0,0,0-.777-.417H31.739l.057-.32c.132-.761.222-1.441.27-2.079l.02-.254h.739l.908,1.248a1.013,1.013,0,0,0,1.371.16,1.173,1.173,0,0,0,.165-1.461L34.1,25.469a.891.891,0,0,0-.741-.43H31.8l-.026-.243a13.751,13.751,0,0,0-.39-2.064l-.092-.347h1.533l.908,1.246A1.014,1.014,0,0,0,35.1,23.8a1.181,1.181,0,0,0,.16-1.463l-1.171-1.608a.894.894,0,0,0-.741-.428H30.6l-.072-.162a13.123,13.123,0,0,0-3.1-4.337l-.088-.081.009-.23a2.052,2.052,0,0,0,.053-.426,6.251,6.251,0,0,0-2.9-5.376l-.268-.171.206-.239a2.908,2.908,0,0,1,1.829-.987,1.075,1.075,0,0,0,.858-1.033,1.04,1.04,0,0,0-.254-.739.913.913,0,0,0-.654-.318h-.189a4.562,4.562,0,0,0-3.589,2.439l-.077.147H22.2a.914.914,0,0,1-.2-.029,2.461,2.461,0,0,0-.412-.05,2.206,2.206,0,0,0-.616.044l-.193.037-.1-.171A4.942,4.942,0,0,0,17.082,6.2a.977.977,0,0,0-1.068.869.831.831,0,0,0,0,.165,1.1,1.1,0,0,0,.895,1.053,2.9,2.9,0,0,1,1.805.985l.206.239-.268.171a6.232,6.232,0,0,0-2.9,5.35,1.875,1.875,0,0,0,.033.526l.033.156-.116.105a13.113,13.113,0,0,0-3.161,4.312l-.075.162H9.752a.857.857,0,0,0-.779.393L7.655,22.376a1.175,1.175,0,0,0,.25,1.463A1,1,0,0,0,9.234,23.6l.895-1.224H11.57l-.092.347a13.863,13.863,0,0,0-.393,2.064l-.026.243H9.574a.844.844,0,0,0-.79.4L7.67,27.1a1.173,1.173,0,0,0,.237,1.474A1.007,1.007,0,0,0,9.24,28.34l.893-1.228h.921l.013.261a13.9,13.9,0,0,0,.265,2.066l.068.327H9.662a.966.966,0,0,0-.787.408L7.663,31.841a1.179,1.179,0,0,0,.246,1.47,1.013,1.013,0,0,0,1.331-.239l.893-1.224h1.854l.057.2A10.693,10.693,0,0,0,21.6,39.766a10.836,10.836,0,0,0,9.485-7.723l.059-.2H33l.908,1.248a1.017,1.017,0,0,0,1.371.158,1.189,1.189,0,0,0,.149-1.463ZM20.506,37.592l-.327-.064c-4.152-.807-7.166-5.418-7.166-10.965a12.808,12.808,0,0,1,3.113-8.634l.211-.243.206.246a5.251,5.251,0,0,0,3.711,1.843l-.007.274h.259ZM21.482,17.8h-.02a4.626,4.626,0,0,1-3.3-.952,2.368,2.368,0,0,1-.643-1.748l-.009-.1a3.986,3.986,0,0,1,3.76-4.192,4.023,4.023,0,0,1,2.873,1.011,3.947,3.947,0,0,1,1.318,2.748,3.549,3.549,0,0,1,0,.432c0,.755,0,2.8-3.977,2.8m1.305,19.733-.327.064v-17.7l.259-.013a5.273,5.273,0,0,0,3.7-1.845l.206-.246.211.243a12.815,12.815,0,0,1,3.115,8.645c0,5.475-3.012,10.042-7.168,10.853" transform="translate(8.538 7.461)" fill="#158bc2"/>
      </g>
    </g>
  </g>
</svg>
