<svg id="no-api-key-icon" xmlns="http://www.w3.org/2000/svg" width="76" height="76" viewBox="0 0 76 76">
  <rect id="Rectangle_8417" data-name="Rectangle 8417" width="76" height="76" fill="#dbe4ec" opacity="0"/>
  <g id="Group_24412" data-name="Group 24412" transform="translate(4 4)">
    <g id="Path_38572" data-name="Path 38572">
      <path id="Path_38642" data-name="Path 38642" d="M309.287,365.992a32.263,32.263,0,1,0,12.6,2.543,32.164,32.164,0,0,0-12.6-2.543m0-1.636a34,34,0,1,1-34,34A34,34,0,0,1,309.287,364.356Z" transform="translate(-275.287 -364.356)" fill="#dbe4ec"/>
    </g>
    <g id="group-policy-icon" transform="translate(16.452 16.452)">
      <g id="Group_4934" data-name="Group 4934" transform="translate(0)">
        <g id="Group_4933" data-name="Group 4933">
          <rect id="Rectangle_8310" data-name="Rectangle 8310" width="36.194" height="36.194" fill="#dbe4ec" opacity="0"/>
          <path id="Path_4218" data-name="Path 4218" d="M25.875,39.259a2.737,2.737,0,0,1-1.951-.783L15.905,30.49a3.07,3.07,0,0,1,.244-4.326l6.231-6.206a3.171,3.171,0,0,1,4.343-.239l8.02,7.983a3.076,3.076,0,0,1-.241,4.328l-6.231,6.2A3.434,3.434,0,0,1,25.875,39.259Zm-1.1-18.278a1.386,1.386,0,0,0-.939.426L17.6,27.612a1.071,1.071,0,0,0-.242,1.431l8.018,7.985a.692.692,0,0,0,.5.182,1.37,1.37,0,0,0,.942-.425l6.231-6.205a1.068,1.068,0,0,0,.238-1.432l-8.018-7.983A.688.688,0,0,0,24.772,20.981Z" transform="translate(-10.066 -11.335)" fill="#dbe4ec"/>
          <path id="Path_4219" data-name="Path 4219" d="M20.907,24.028c-.2,0-.4-.007-.559-.02a7.905,7.905,0,1,1,8.43-7.395,5.341,5.341,0,0,1-.786,2.755A1.027,1.027,0,0,1,26.3,18.2a3.5,3.5,0,0,0,.425-1.651,5.889,5.889,0,1,0-6.23,5.41,8.034,8.034,0,0,0,1.167-.017,1.024,1.024,0,1,1,.209,2.038C21.625,24.009,21.255,24.028,20.907,24.028Z" transform="translate(-9.324 -7.675)" fill="#dbe4ec"/>
          <path id="Path_4220" data-name="Path 4220" d="M46.41,53.213a2.935,2.935,0,0,1-2.1-.978l-1.075-1.079a1.025,1.025,0,0,1-.3-.648l-.051-.7-2.6-.012a1.028,1.028,0,0,1-1.025-1.047l.06-2.653-1.856-.446a1.036,1.036,0,0,1-.448-.236l-1.954-1.76a1.026,1.026,0,1,1,1.379-1.52l1.761,1.585,2.407.579a1.026,1.026,0,0,1,.787,1.018l-.056,2.437,2.506.01a1.026,1.026,0,0,1,1.021.951l.092,1.265.806.809a1.318,1.318,0,0,0,.661.373.716.716,0,0,0,.367-.173l.008-2.326-8.355-8.4a1.024,1.024,0,0,1,.007-1.45,1.035,1.035,0,0,1,1.456.007l8.653,8.7a1.021,1.021,0,0,1,.3.726l-.01,3.153a1.035,1.035,0,0,1-.187.587A3.026,3.026,0,0,1,46.61,53.2C46.546,53.211,46.48,53.213,46.41,53.213Z" transform="translate(-16.686 -17.992)" fill="#dbe4ec"/>
          <path id="Path_4221" data-name="Path 4221" d="M26.433,31.969a1.829,1.829,0,0,1-1.3-3.12,1.891,1.891,0,0,1,2.608,0,1.825,1.825,0,0,1-.009,2.585A1.847,1.847,0,0,1,26.433,31.969Zm0-2.048a.21.21,0,0,0-.143.057.218.218,0,1,0,.3.313.212.212,0,0,0,0-.3A.226.226,0,0,0,26.433,29.92Z" transform="translate(-13.267 -14.522)" fill="#dbe4ec"/>
          <path id="Path_4222" data-name="Path 4222" d="M30.67,38.994a1.025,1.025,0,0,1-.727-1.749l3.49-3.476a1.026,1.026,0,0,1,1.454,1.448L31.4,38.693A1.029,1.029,0,0,1,30.67,38.994Z" transform="translate(-14.968 -16.271)" fill="#dbe4ec"/>
        </g>
      </g>
    </g>
  </g>
</svg>
