<svg xmlns="http://www.w3.org/2000/svg" width="21.906" height="21.906" viewBox="0 0 21.906 21.906">
  <g id="details-icon" transform="translate(0 0)">
    <g id="Group_24116" data-name="Group 24116" transform="translate(0 0)">
      <g id="Group_4032" data-name="Group 4032">
        <g id="Ellipse_11" data-name="Ellipse 11">
          <path id="Path_38536" data-name="Path 38536" d="M523.55,423.934A10.953,10.953,0,1,1,534.5,412.981,10.965,10.965,0,0,1,523.55,423.934Zm0-20.537a9.584,9.584,0,1,0,9.584,9.584A9.594,9.594,0,0,0,523.55,403.4Z" transform="translate(-512.597 -402.028)" fill="#8693a5"/>
        </g>
      </g>
      <g id="edit-icon" transform="translate(6.116 6.122)">
        <g id="Group_4921" data-name="Group 4921">
          <g id="noun_edit_737749">
            <g id="Group_4920" data-name="Group 4920">
              <g id="Group_4919" data-name="Group 4919">
                <g id="Group_4918" data-name="Group 4918">
                  <g id="Group_4917" data-name="Group 4917">
                    <path id="Path_4214" data-name="Path 4214" d="M11.591,3.8h-.3L10.122,4.961,11.958,6.8,13.124,5.63v-.3Zm-7.3,6.994L3.45,13.456l2.667-.842,5.075-5.073L9.356,5.706Z" transform="translate(-3.45 -3.795)" fill="#8693a5"/>
                  </g>
                </g>
              </g>
            </g>
          </g>
        </g>
      </g>
    </g>
  </g>
</svg>
