<svg xmlns="http://www.w3.org/2000/svg" width="46" height="45.904" viewBox="0 0 46 45.904">
  <g id="API-code" transform="translate(0 0)">
    <path id="Path_38546" data-name="Path 38546" d="M3.629,29.221l2.587.575a.094.094,0,0,1,.1.1,21.867,21.867,0,0,0,2.012,4.887v.1l-1.437,2.3a2.019,2.019,0,0,0,.287,2.492l3.162,3.162a2.034,2.034,0,0,0,2.492.288l2.3-1.437h.1a21.867,21.867,0,0,0,4.888,2.012.094.094,0,0,1,.1.1l.575,2.587A2.051,2.051,0,0,0,22.8,48h4.5a2.133,2.133,0,0,0,2.013-1.629l.575-2.587.1-.1a21.867,21.867,0,0,0,4.887-2.012l-.479-.863.575.863,2.3,1.437a2.019,2.019,0,0,0,2.492-.288l3.162-3.162a2.034,2.034,0,0,0,.287-2.492l-1.437-2.3v-.1a21.867,21.867,0,0,0,2.013-4.887.094.094,0,0,1,.1-.1l2.588-.575A1.969,1.969,0,0,0,48,27.208V22.8a2.069,2.069,0,0,0-1.533-2.012l-2.683-.575-.1-.1a21.867,21.867,0,0,0-2.012-4.888v-.1l1.438-2.3a2.034,2.034,0,0,0-.288-2.492L39.663,7.179a2.034,2.034,0,0,0-2.492-.288l-2.3,1.438h-.1a21.867,21.867,0,0,0-4.888-2.012.094.094,0,0,1-.1-.1l-.575-2.587A1.969,1.969,0,0,0,27.2,2.1H22.7a2.158,2.158,0,0,0-2.012,1.533l-.479,2.588a.094.094,0,0,1-.1.1,21.867,21.867,0,0,0-4.888,2.012l.479.863-.575-.767-2.3-1.437a2.034,2.034,0,0,0-2.492.287L7.175,10.438a2.034,2.034,0,0,0-.288,2.492l1.437,2.3v.1a21.867,21.867,0,0,0-2.012,4.887.094.094,0,0,1-.1.1l-2.588.575A2.051,2.051,0,0,0,2,22.9V27.3A2.028,2.028,0,0,0,3.629,29.221ZM3.917,22.8c0-.1,0-.1.1-.1L6.6,22.129A2.08,2.08,0,0,0,8.133,20.6a14.253,14.253,0,0,1,1.821-4.312,2.076,2.076,0,0,0,0-2.108l-1.437-2.3v-.192l3.162-3.163h.192l2.3,1.437a2.076,2.076,0,0,0,2.108,0,18.78,18.78,0,0,1,4.313-1.821A2.08,2.08,0,0,0,22.125,6.6L22.7,4.017c0-.1,0-.1.1-.1h4.5c.1,0,.1,0,.1.1L27.971,6.6a2.12,2.12,0,0,0,1.438,1.533,14.253,14.253,0,0,1,4.312,1.821,2.076,2.076,0,0,0,2.108,0l2.3-1.437h.1l3.162,3.163v.192l-1.438,2.3a2.076,2.076,0,0,0,0,2.108A17.158,17.158,0,0,1,41.771,20.6,1.833,1.833,0,0,0,43.3,22.033l2.588.575a.094.094,0,0,1,.1.1v4.408c0,.1,0,.1-.1.1l-2.588.575a2.12,2.12,0,0,0-1.533,1.438,14.253,14.253,0,0,1-1.821,4.313,2.076,2.076,0,0,0,0,2.108l1.438,2.3v.192L38.225,41.3h-.192l-2.3-1.438a2.076,2.076,0,0,0-2.108,0,18.78,18.78,0,0,1-4.313,1.821,1.833,1.833,0,0,0-1.437,1.533L27.3,45.8a.094.094,0,0,1-.1.1H22.7a.094.094,0,0,1-.1-.1l-.575-2.587A2.08,2.08,0,0,0,20.5,41.679a14.253,14.253,0,0,1-4.312-1.821,2.076,2.076,0,0,0-2.108,0l-2.3,1.438h-.1L8.517,38.133v-.192l1.437-2.3a2.076,2.076,0,0,0,0-2.108,17.158,17.158,0,0,1-1.821-4.313A1.833,1.833,0,0,0,6.6,27.783l-2.588-.575c-.1.1-.1.1-.1,0Z" transform="translate(-2 -2.1)" fill="#253e58"/>
    <path id="Path_38547" data-name="Path 38547" d="M26.173,39.739A13.569,13.569,0,1,0,12.6,26.169,13.572,13.572,0,0,0,26.173,39.739Zm0-25.113A11.544,11.544,0,1,1,14.626,26.169,11.54,11.54,0,0,1,26.173,14.625Z" transform="translate(-3.173 -3.262)" fill="#253e58"/>
    <path id="Path_38548" data-name="Path 38548" d="M23.436,30.43a.882.882,0,0,0,1.156-.445l3.735-8.538a.876.876,0,1,0-1.6-.711l-3.735,8.538A.882.882,0,0,0,23.436,30.43Z" transform="translate(-2.66 -2.458)" fill="#253e58"/>
    <path id="Path_38549" data-name="Path 38549" d="M31.328,28.3l-1.868,1.512a.883.883,0,1,0,1.156,1.334l2.757-2.223a1.1,1.1,0,0,0,.356-.711.809.809,0,0,0-.356-.711l-2.757-2.223a.945.945,0,0,0-1.245.089,1.071,1.071,0,0,0,.089,1.423Z" transform="translate(-2.906 -2.783)" fill="#253e58"/>
    <path id="Path_38550" data-name="Path 38550" d="M20.913,25.864a.883.883,0,0,0,1.156-1.334L20.2,23.018l1.868-1.512a.883.883,0,0,0-1.156-1.334L18.156,22.4a1.1,1.1,0,0,0-.356.711.809.809,0,0,0,.356.711Z" transform="translate(-2.527 -2.638)" fill="#253e58"/>
  </g>
</svg>
