<svg id="view-icon" xmlns="http://www.w3.org/2000/svg" width="24" height="24" viewBox="0 0 24 24">
  <path id="Path_4332" data-name="Path 4332" d="M168.648,390.606h0a4.522,4.522,0,1,0,4.545,4.522A4.539,4.539,0,0,0,168.648,390.6Zm0,8.051a3.54,3.54,0,0,1-3.545-3.527,3.518,3.518,0,0,1,3.113-3.5V391.6l.432,0a3.528,3.528,0,1,1,0,7.056Z" transform="translate(-156.649 -383.126)" fill="#8693a5"/>
  <path id="Path_4333" data-name="Path 4333" d="M167.489,387.727h-.014l-.268,0a14.033,14.033,0,0,0-11.648,6.714.551.551,0,0,0,0,.565A13.933,13.933,0,0,0,179.4,395a.536.536,0,0,0,0-.563A13.959,13.959,0,0,0,167.489,387.727ZM178.3,395a13.031,13.031,0,0,1-10.826,5.727l-.222,0A13.089,13.089,0,0,1,156.663,395l-.2-.275.2-.274a13.117,13.117,0,0,1,10.814-5.726h0A13.068,13.068,0,0,1,178.3,394.45l.2.274Z" transform="translate(-155.483 -382.724)" fill="#8693a5"/>
  <rect id="Rectangle_8300" data-name="Rectangle 8300" width="24" height="24" transform="translate(0)" fill="#8693a5" opacity="0"/>
</svg>
