<svg xmlns="http://www.w3.org/2000/svg"  viewBox="0 0 23.5 16.695">
  <g id="noun_code_70816" transform="translate(0.25 0.27)">
    <path id="Path_38538" data-name="Path 38538" d="M7.4,32.857l5.578-3.725a.529.529,0,0,0-.588-.88L6.813,31.976a1.709,1.709,0,0,0,0,2.843l5.578,3.725a.529.529,0,1,0,.588-.88L7.4,33.939a.65.65,0,0,1,0-1.082Z" transform="translate(-6.053 -25.403)" fill="#158bc2" stroke="#158bc2" stroke-width="0.5"/>
    <path id="Path_38539" data-name="Path 38539" d="M72.292,31.977l-5.578-3.725a.529.529,0,1,0-.588.88L71.7,32.857a.65.65,0,0,1,0,1.082l-5.578,3.725a.529.529,0,1,0,.588.88l5.578-3.725a1.709,1.709,0,0,0,0-2.843Z" transform="translate(-50.052 -25.404)" fill="#158bc2" stroke="#158bc2" stroke-width="0.5"/>
    <path id="Path_38540" data-name="Path 38540" d="M43.9,17.764a.53.53,0,0,0-.665.343L38.411,33.224a.529.529,0,1,0,1.008.322l4.824-15.116A.529.529,0,0,0,43.9,17.764Z" transform="translate(-29.828 -17.739)" fill="#158bc2" stroke="#158bc2" stroke-width="0.5"/>
  </g>
</svg>
