<svg xmlns="http://www.w3.org/2000/svg"  viewBox="0 0 68 68">
  <g id="proxy-icon-small" transform="translate(0 -0.431)">
    <g id="Rectangle_8704" data-name="Rectangle 8704" transform="translate(0 0.431)" fill="#158bc2" stroke="#f3f5f6" stroke-width="0.5" opacity="0">
      <rect width="68" height="68" stroke="none"/>
      <rect x="0.25" y="0.25" width="67.5" height="67.5" fill="none"/>
    </g>
    <g id="Group_25561" data-name="Group 25561" transform="translate(11.385 5.641)">
      <path id="Subtraction_34" data-name="Subtraction 34" d="M-4696.6,12173.744h-42.909a1.372,1.372,0,0,1-1.372-1.369v-31.619a1.374,1.374,0,0,1,1.372-1.372h8.4a.5.5,0,0,0,.483-.479v-6.951a12.677,12.677,0,0,1,12.661-12.664,12.49,12.49,0,0,1,8.9,3.715,12.594,12.594,0,0,1,3.707,8.949v6.951a.5.5,0,0,0,.482.479h8.28a1.373,1.373,0,0,1,1.372,1.372v31.619A1.372,1.372,0,0,1-4696.6,12173.744Zm-41.058-31.616a.5.5,0,0,0-.48.482v27.91a.5.5,0,0,0,.48.483h39.206a.5.5,0,0,0,.479-.483v-27.91a.5.5,0,0,0-.479-.482Zm19.688-20.037a9.818,9.818,0,0,0-6.981,2.881,9.809,9.809,0,0,0-2.881,6.981v6.951a.5.5,0,0,0,.483.479h18.763a.5.5,0,0,0,.48-.479v-6.951a9.809,9.809,0,0,0-2.881-6.981A9.808,9.808,0,0,0-4717.973,12122.091Z" transform="translate(4741.135 -12119.04)" fill="#158bc2"/>
      <path id="Subtraction_33" data-name="Subtraction 33" d="M-4736.173,12129.736h-2.222v-3.272l-.167-.165-.045-.021a3.6,3.6,0,0,1-2.277-3.358,3.635,3.635,0,0,1,3.632-3.629,3.633,3.633,0,0,1,3.629,3.629,3.586,3.586,0,0,1-2.3,3.343.276.276,0,0,0-.253.3v3.168Z" transform="translate(4760.301 -12084.295)" fill="#158bc2"/>
    </g>
  </g>
</svg>
