<svg id="graph-icon" xmlns="http://www.w3.org/2000/svg" width="100" height="100" viewBox="0 0 100 100">
  <rect id="Rectangle_10197" data-name="Rectangle 10197" width="100" height="100" fill="#158bc2" opacity="0"/>
  <g id="Group_38835" data-name="Group 38835" transform="translate(0 3.188)">
    <path id="Path_105294" data-name="Path 105294" d="M20.264,6.051a2.115,2.115,0,0,0-.16-.161,1.661,1.661,0,0,0-2.35.161,1.681,1.681,0,0,0,.16,2.365l2.356,2.37a1.652,1.652,0,0,0,1.175.488l-.006.011a1.659,1.659,0,0,0,1.192-.5,1.684,1.684,0,0,0-.017-2.37Z" transform="translate(55.856 15.756)" fill="#158bc2"/>
    <path id="Path_105295" data-name="Path 105295" d="M19.031,9.543a1.652,1.652,0,0,0,1.175.488l-.006.017a1.659,1.659,0,0,0,1.192-.5,1.684,1.684,0,0,0-.017-2.37l-2.35-2.365a2.115,2.115,0,0,0-.16-.161,1.661,1.661,0,0,0-2.35.161,1.686,1.686,0,0,0,.16,2.365Z" transform="translate(50.04 9.889)" fill="#158bc2"/>
    <path id="Path_105297" data-name="Path 105297" d="M22.595,12.475h.023a1.659,1.659,0,0,0,1.192-.5,1.684,1.684,0,0,0-.017-2.37L21.454,7.224a1.662,1.662,0,0,0-2.367,0,1.687,1.687,0,0,0,0,2.382l2.367,2.353a1.654,1.654,0,0,0,1.141.517" transform="translate(61.744 21.672)" fill="#158bc2"/>
    <path id="Path_105298" data-name="Path 105298" d="M10.27,10.892a1.562,1.562,0,0,0,1.113-.478l2.226-2.24a1.6,1.6,0,0,0,0-2.088,1.569,1.569,0,0,0-2.226-.152L9.157,8.174a1.59,1.59,0,0,0,1.113,2.718" transform="translate(31.96 15.432)" fill="#158bc2"/>
    <path id="Path_105299" data-name="Path 105299" d="M8.907,8.4l-2.226,2.24a1.59,1.59,0,0,0,1.113,2.718,1.562,1.562,0,0,0,1.113-.478l2.226-2.24a1.6,1.6,0,0,0,0-2.088A1.569,1.569,0,0,0,8.907,8.4" transform="translate(21.062 26.389)" fill="#158bc2"/>
    <path id="Path_105300" data-name="Path 105300" d="M9.032,12.124a1.562,1.562,0,0,0,1.113-.478l2.226-2.24a1.6,1.6,0,0,0,0-2.088,1.573,1.573,0,0,0-2.226-.152L7.919,9.406a1.59,1.59,0,0,0,1.113,2.718" transform="translate(26.509 20.905)" fill="#158bc2"/>
    <path id="Path_105302" data-name="Path 105302" d="M11.507,9.775A1.562,1.562,0,0,0,12.62,9.3l2.226-2.24A2,2,0,0,0,15,6.9a1.592,1.592,0,0,0-.151-2.24,1.569,1.569,0,0,0-2.226.152l-2.226,2.24a1.59,1.59,0,0,0,1.113,2.718" transform="translate(37.412 9.801)" fill="#158bc2"/>
    <path id="Path_105304" data-name="Path 105304" d="M12.791,14.726h3.445a1.135,1.135,0,0,0,.2,0,1.736,1.736,0,0,0-.2-3.466H12.791a1.132,1.132,0,0,0-.2,0,1.736,1.736,0,0,0,.2,3.466" transform="translate(42.483 38.035)" fill="#158bc2"/>
    <path id="Path_105305" data-name="Path 105305" d="M11.041,11.26a1.132,1.132,0,0,0-.2,0,1.736,1.736,0,0,0,.2,3.466h3.445a1.134,1.134,0,0,0,.2,0,1.736,1.736,0,0,0-.2-3.466Z" transform="translate(33.897 38.035)" fill="#158bc2"/>
    <path id="Path_105306" data-name="Path 105306" d="M12.737,11.26H9.292a1.132,1.132,0,0,0-.2,0,1.736,1.736,0,0,0,.2,3.466h3.445a1.134,1.134,0,0,0,.2,0,1.736,1.736,0,0,0-.2-3.466" transform="translate(25.31 38.035)" fill="#158bc2"/>
    <path id="Path_105308" data-name="Path 105308" d="M11.508,16.969l-.109-.1a1.68,1.68,0,0,0-2.168,2.567l2.449,2.3a1.679,1.679,0,0,0,1.285.462l.006-.023a1.659,1.659,0,0,0,1.067-.525,1.693,1.693,0,0,0-.08-2.383Z" transform="translate(33.233 59.976)" fill="#158bc2"/>
    <path id="Path_105309" data-name="Path 105309" d="M8.854,14.5a1.668,1.668,0,0,0-2.26.081,1.692,1.692,0,0,0-.017,2.383l2.449,2.3a1.679,1.679,0,0,0,1.285.462l.006-.023a1.659,1.659,0,0,0,1.067-.525,1.693,1.693,0,0,0-.08-2.383Z" transform="translate(21.175 48.685)" fill="#158bc2"/>
    <path id="Path_105310" data-name="Path 105310" d="M10.136,15.693a1.668,1.668,0,0,0-2.26.081,1.693,1.693,0,0,0-.017,2.383l2.449,2.3a1.679,1.679,0,0,0,1.285.462l.006-.023a1.659,1.659,0,0,0,1.067-.525,1.693,1.693,0,0,0-.08-2.383Z" transform="translate(27.25 54.371)" fill="#158bc2"/>
    <path id="Path_105312" data-name="Path 105312" d="M3.607.142a1.706,1.706,0,0,0-2.247.9L.118,4.235a1.69,1.69,0,0,0-.111.777A1.7,1.7,0,0,0,3.3,5.489l1.247-3.2A1.729,1.729,0,0,0,3.607.142" transform="matrix(0.999, -0.035, 0.035, 0.999, 62.784, 60.236)" fill="#158bc2"/>
    <path id="Path_105313" data-name="Path 105313" d="M1.862,6.689A1.7,1.7,0,0,0,3.3,5.605L4.543,2.4l.041-.112A1.721,1.721,0,0,0,3.537.1,1.7,1.7,0,0,0,1.36,1.153L.118,4.357a1.655,1.655,0,0,0-.111.772,1.71,1.71,0,0,0,1.855,1.56" transform="matrix(0.999, -0.035, 0.035, 0.999, 59.39, 69.844)" fill="#158bc2"/>
    <path id="Path_105314" data-name="Path 105314" d="M19.514,15.641a7.821,7.821,0,1,0-7.76-7.82,7.8,7.8,0,0,0,7.76,7.82M19.54,3.866a3.955,3.955,0,1,1-3.908,3.976A3.966,3.966,0,0,1,19.54,3.866" transform="translate(39.86 0)" fill="#158bc2"/>
    <path id="Path_105315" data-name="Path 105315" d="M26.88,7.392a7.821,7.821,0,1,0,7.76,7.834,7.808,7.808,0,0,0-7.76-7.834m.044,11.775a3.955,3.955,0,1,1,3.908-3.954,3.944,3.944,0,0,1-3.908,3.954" transform="translate(64.752 25.272)" fill="#158bc2"/>
    <path id="Path_105316" data-name="Path 105316" d="M18.653,17.816a7.821,7.821,0,1,0,7.76,7.834,7.805,7.805,0,0,0-7.76-7.834M18.7,29.591a3.955,3.955,0,1,1,3.908-3.954A3.944,3.944,0,0,1,18.7,29.591" transform="translate(38.358 59.211)" fill="#158bc2"/>
    <path id="Path_105317" data-name="Path 105317" d="M22.05,9.778a7.821,7.821,0,1,0,7.76,7.834,7.805,7.805,0,0,0-7.76-7.834m.044,11.775A3.955,3.955,0,1,1,26,17.6a3.944,3.944,0,0,1-3.908,3.954" transform="translate(47.97 33.587)" fill="#158bc2"/>
    <path id="Path_105318" data-name="Path 105318" d="M15.572,8.008A15.641,15.641,0,1,0,31.091,23.675,15.605,15.605,0,0,0,15.572,8.008m.061,27.416A11.775,11.775,0,1,1,27.306,23.649,11.738,11.738,0,0,1,15.633,35.424" transform="translate(0 27.378)" fill="#158bc2"/>
  </g>
</svg>
