<svg xmlns="http://www.w3.org/2000/svg" width="100" height="100" viewBox="0 0 100 100">
  <g id="icon-2" transform="translate(1.551 1.55)">
    <g id="Rectangle_8316" data-name="Rectangle 8316" transform="translate(-1.551 -1.55)" fill="#158bc2" stroke="#f3f5f6" stroke-width="1" opacity="0">
      <rect width="100" height="100" stroke="none"/>
      <rect x="0.5" y="0.5" width="99" height="99" fill="none"/>
    </g>
    <g id="Group_4957" data-name="Group 4957" transform="translate(1.966 1.968)">
      <g id="Group_4956" data-name="Group 4956">
        <g id="Group_4955" data-name="Group 4955">
          <g id="Group_4954" data-name="Group 4954">
            <path id="Path_4228" data-name="Path 4228" d="M101.532,56.747a9.46,9.46,0,0,0-9.556,6.372L77.7,60.577a16.115,16.115,0,0,0-7.933-12.531l5.161-10.068c.012,0,.023.008.036.01a9.516,9.516,0,0,0,1.6.136,9.5,9.5,0,0,0,9.332-7.945,9.486,9.486,0,1,0-15.147,5.9L65.491,46.323a15.825,15.825,0,0,0-15.028,4.2l-7.917-8.027a9.482,9.482,0,0,0-7.2-14.8,9.328,9.328,0,0,0-6.878,2.329,9.539,9.539,0,0,0,5.6,16.681c.218.016.435.023.652.023a9.342,9.342,0,0,0,4.426-1.139l8.526,8.644a16.04,16.04,0,0,0-.891,13.52L35.242,75.766a9.383,9.383,0,0,0-6.028-2.791,9.527,9.527,0,0,0-1.278,19.01c.216.014.431.023.644.023a9.464,9.464,0,0,0,9.04-12.3l11.419-7.935a15.978,15.978,0,0,0,12.69,6.3c.156,0,.308-.019.463-.023l3.78,14.473A9.608,9.608,0,0,0,64.4,93.637,9.54,9.54,0,0,0,70,110.319c.218.016.435.022.652.022a9.5,9.5,0,0,0,9.45-8.887,9.511,9.511,0,0,0-8.825-10.146c-.3-.022-.586.017-.881.024L66.723,77.261A16.134,16.134,0,0,0,77.439,65.206l14.1,2.51a9.505,9.505,0,0,0,8.718,8.042c.217.015.431.023.644.023a9.529,9.529,0,0,0,.634-19.033ZM71.7,27.773a4.9,4.9,0,1,1,4.02,5.678A4.919,4.919,0,0,1,71.7,27.773ZM28.244,87.4a4.92,4.92,0,0,1-4.564-5.246,4.921,4.921,0,0,1,4.89-4.593c.111,0,.222,0,.333.011a4.925,4.925,0,0,1-.66,9.828ZM74.333,97.574a4.938,4.938,0,0,1-.467,6.948,4.852,4.852,0,0,1-3.556,1.206,4.931,4.931,0,0,1-2.9-8.624,4.888,4.888,0,0,1,6.919.47Zm-12.6-24.1A11.5,11.5,0,1,1,73.183,61.963,11.494,11.494,0,0,1,61.729,73.469Zm38.833-2.3a4.925,4.925,0,1,1,5.224-4.583A4.924,4.924,0,0,1,100.562,71.167Z" transform="translate(-19.088 -19.063)" fill="#158bc2" stroke="#f3f5f6" stroke-width="0.69"/>
          </g>
        </g>
      </g>
    </g>
  </g>
</svg>
