<svg id="refresh-icon" xmlns="http://www.w3.org/2000/svg" width="22" height="22" viewBox="0 0 22 22">
  <rect id="Rectangle_8766" data-name="Rectangle 8766" width="22" height="22" fill="#8693a5" opacity="0"/>
  <g id="Group_26002" data-name="Group 26002" transform="translate(-598.5 -314.512)">
    <path id="Path_39190" data-name="Path 39190" d="M599.494,326.083a.592.592,0,0,0,.564-.572,9.321,9.321,0,0,1,9.21-9.434h.113a9.315,9.315,0,0,1,8.433,5.35h-2.942a.582.582,0,0,0-.427.154.592.592,0,0,0,.369,1.028.3.3,0,0,0,.052,0h4.2a.592.592,0,0,0,.592-.591v-4.2a.591.591,0,0,0-.564-.618.59.59,0,0,0-.618.561.3.3,0,0,0,0,.051v2.333a10.485,10.485,0,0,0-8.974-5.256v-.006h-.126a10.586,10.586,0,0,0-10.5,10.631.593.593,0,0,0,.592.564Z" fill="#8693a5"/>
    <path id="Path_39191" data-name="Path 39191" d="M619.548,324.911a.709.709,0,0,0-.08,0,.588.588,0,0,0-.527.6,9.336,9.336,0,0,1-9.209,9.44h-.117a9.316,9.316,0,0,1-8.437-5.358h2.949a.592.592,0,1,0,.054-1.183c-.017,0-.034,0-.048,0h-4.2a.592.592,0,0,0-.592.591v4.2a.591.591,0,0,0,.564.618.59.59,0,0,0,.618-.561.3.3,0,0,0,0-.051v-2.325a10.5,10.5,0,0,0,19.6-5.365A.592.592,0,0,0,619.548,324.911Z" fill="#8693a5"/>
  </g>
</svg>
