<svg xmlns="http://www.w3.org/2000/svg" width="20.5" height="20.458" viewBox="0 0 20.5 20.458">
  <g id="noun_coding_setting_gear_2905632" data-name="noun_coding setting gear_2905632" transform="translate(0.25 0.25)">
    <path id="Path_38546" data-name="Path 38546" d="M2.708,13.892l1.125.25a.041.041,0,0,1,.042.042,9.507,9.507,0,0,0,.875,2.125v.042l-.625,1a.878.878,0,0,0,.125,1.083l1.375,1.375a.884.884,0,0,0,1.083.125l1-.625H7.75a9.507,9.507,0,0,0,2.125.875.041.041,0,0,1,.042.042l.25,1.125a.892.892,0,0,0,.875.708H13a.927.927,0,0,0,.875-.708l.25-1.125.042-.042a9.507,9.507,0,0,0,2.125-.875l-.208-.375.25.375,1,.625a.878.878,0,0,0,1.083-.125l1.375-1.375a.884.884,0,0,0,.125-1.083l-.625-1v-.042a9.507,9.507,0,0,0,.875-2.125.041.041,0,0,1,.042-.042l1.125-.25A.856.856,0,0,0,22,13.017V11.1a.9.9,0,0,0-.667-.875l-1.167-.25-.042-.042a9.508,9.508,0,0,0-.875-2.125V7.767l.625-1a.884.884,0,0,0-.125-1.083L18.375,4.308a.884.884,0,0,0-1.083-.125l-1,.625H16.25a9.507,9.507,0,0,0-2.125-.875.041.041,0,0,1-.042-.042l-.25-1.125a.856.856,0,0,0-.875-.667H11a.938.938,0,0,0-.875.667L9.917,3.892a.041.041,0,0,1-.042.042,9.507,9.507,0,0,0-2.125.875l.208.375-.25-.333-1-.625a.884.884,0,0,0-1.083.125L4.25,5.725a.884.884,0,0,0-.125,1.083l.625,1V7.85a9.507,9.507,0,0,0-.875,2.125.041.041,0,0,1-.042.042l-1.125.25A.892.892,0,0,0,2,11.142v1.917A.882.882,0,0,0,2.708,13.892ZM2.833,11.1c0-.042,0-.042.042-.042L4,10.808a.9.9,0,0,0,.667-.667,6.2,6.2,0,0,1,.792-1.875.9.9,0,0,0,0-.917l-.625-1V6.267L6.208,4.892h.083l1,.625a.9.9,0,0,0,.917,0,8.165,8.165,0,0,1,1.875-.792.9.9,0,0,0,.667-.667L11,2.933c0-.042,0-.042.042-.042H13c.042,0,.042,0,.042.042l.25,1.125a.922.922,0,0,0,.625.667,6.2,6.2,0,0,1,1.875.792.9.9,0,0,0,.917,0l1-.625h.042l1.375,1.375V6.35l-.625,1a.9.9,0,0,0,0,.917,7.46,7.46,0,0,1,.792,1.875.8.8,0,0,0,.667.625l1.125.25a.041.041,0,0,1,.042.042v1.917c0,.042,0,.042-.042.042l-1.125.25a.922.922,0,0,0-.667.625,6.2,6.2,0,0,1-.792,1.875.9.9,0,0,0,0,.917l.625,1v.083L17.75,19.142h-.083l-1-.625a.9.9,0,0,0-.917,0,8.165,8.165,0,0,1-1.875.792.8.8,0,0,0-.625.667L13,21.1a.041.041,0,0,1-.042.042H11a.041.041,0,0,1-.042-.042l-.25-1.125a.9.9,0,0,0-.667-.667,6.2,6.2,0,0,1-1.875-.792.9.9,0,0,0-.917,0l-1,.625H6.208L4.833,17.767v-.083l.625-1a.9.9,0,0,0,0-.917,7.46,7.46,0,0,1-.792-1.875A.8.8,0,0,0,4,13.267l-1.125-.25c-.042.042-.042.042-.042,0Z" transform="translate(-2 -2.1)" fill="#158bc2" stroke="#158bc2" stroke-width="0.5"/>
    <path id="Path_38547" data-name="Path 38547" d="M18.5,24.4a5.9,5.9,0,1,0-5.9-5.9A5.9,5.9,0,0,0,18.5,24.4Zm0-10.919a5.019,5.019,0,1,1-5.02,5.019A5.018,5.018,0,0,1,18.5,13.481Z" transform="translate(-8.501 -8.54)" fill="#158bc2" stroke="#158bc2" stroke-width="0.5"/>
    <path id="Path_38548" data-name="Path 38548" d="M23.146,24.661a.384.384,0,0,0,.5-.193l1.624-3.712a.381.381,0,1,0-.7-.309l-1.624,3.712A.384.384,0,0,0,23.146,24.661Z" transform="translate(-14.113 -12.499)" fill="#158bc2" stroke="#158bc2" stroke-width="0.5"/>
    <path id="Path_38549" data-name="Path 38549" d="M30.095,26.484l-.812.657a.384.384,0,1,0,.5.58l1.2-.967a.477.477,0,0,0,.155-.309.352.352,0,0,0-.155-.309l-1.2-.967a.411.411,0,0,0-.541.039.466.466,0,0,0,.039.619Z" transform="translate(-17.737 -15.389)" fill="#158bc2" stroke="#158bc2" stroke-width="0.5"/>
    <path id="Path_38550" data-name="Path 38550" d="M19.153,22.519a.384.384,0,0,0,.5-.58l-.812-.657.812-.657a.384.384,0,0,0-.5-.58l-1.2.967a.477.477,0,0,0-.155.309.352.352,0,0,0,.155.309Z" transform="translate(-11.16 -12.42)" fill="#158bc2" stroke="#158bc2" stroke-width="0.5"/>
  </g>
</svg>
