<svg id="speedometer" xmlns="http://www.w3.org/2000/svg" viewBox="0 0 22.001 22">
  <rect id="Rectangle_8476" data-name="Rectangle 8476" width="22" height="22" transform="translate(0.001)" fill="#fff" opacity="0"/>
  <g id="Group_24671" data-name="Group 24671" transform="translate(0 1.467)">
    <path id="Path_38723" data-name="Path 38723" d="M88.537,373.366A11,11,0,1,0,73,388.935a.588.588,0,0,0,.788-.006l1.832-1.834a.553.553,0,0,0,0-.781.565.565,0,0,0-.781,0l-1.448,1.448-.131-.152a9.974,9.974,0,0,1-2.37-5.73l-.015-.2h2.041a.533.533,0,0,0,0-1.066H70.869l.016-.2a9.979,9.979,0,0,1,2.365-5.734l.131-.154,1.422,1.423a.542.542,0,0,0,.753-.779l-1.425-1.423.152-.131a9.775,9.775,0,0,1,5.734-2.361l.2-.013v2.038a.532.532,0,1,0,1.065,0v-2.041l.2.016a9.988,9.988,0,0,1,5.734,2.364l.154.131-1.45,1.448a.542.542,0,1,0,.753.779l1.445-1.445.131.151a9.781,9.781,0,0,1,2.365,5.737l.013.2H88.637a.53.53,0,0,0-.373.154.522.522,0,0,0-.157.375.557.557,0,0,0,.539.564h2.038l-.015.2a9.908,9.908,0,0,1-2.364,5.733l-.131.154-1.45-1.448a.552.552,0,0,0-.781.781l1.84,1.84a.54.54,0,0,0,.748,0,11.031,11.031,0,0,0,.006-15.6Z" transform="translate(-69.767 -370.132)" fill="#fff"/>
    <path id="Path_38724" data-name="Path 38724" d="M78.434,376.749a1.876,1.876,0,0,0-.881.216l-.119.063-2.138-2.112a.543.543,0,0,0-.769.767l2.14,2.138-.065.12a1.843,1.843,0,0,0-.214.881,2.041,2.041,0,0,0,2.042,2.046h0a2.043,2.043,0,0,0,2.043-2.042A2.071,2.071,0,0,0,78.434,376.749Zm.186,3.017v.021l-.183,0a.969.969,0,1,1,.969-.969A.989.989,0,0,1,78.62,379.766Z" transform="translate(-67.449 -367.791)" fill="#fff"/>
  </g>
</svg>
