<svg id="tag-icon" xmlns="http://www.w3.org/2000/svg" width="18" height="18.001" viewBox="0 0 18 18.001">
  <rect id="Rectangle_8696" data-name="Rectangle 8696" width="18" height="18" fill="#8693a5" opacity="0"/>
  <g id="Group_25421" data-name="Group 25421">
    <path id="Path_39053" data-name="Path 39053" d="M4.358,2.433A1.937,1.937,0,0,0,2.425,4.356h0A1.93,1.93,0,0,0,4.349,6.288h0a1.927,1.927,0,0,0,.006-3.855m0,2.837h0a.9.9,0,0,1-.9-.908l-.084-.006h.084a.908.908,0,0,1,.906-.9H4.36A.907.907,0,0,1,4.354,5.27" transform="translate(-0.408 -0.41)" fill="#8693a5"/>
    <path id="Path_39054" data-name="Path 39054" d="M17.655,9.459,8.761.16A.512.512,0,0,0,8.394,0H.507A.508.508,0,0,0,0,.51V8.036a.506.506,0,0,0,.144.313l9.1,9.3A1.233,1.233,0,0,0,10.1,18a.08.08,0,0,1,.02,0,1.2,1.2,0,0,0,.853-.353l6.669-6.669A1.094,1.094,0,0,0,18,10.21a1.079,1.079,0,0,0-.345-.751M1.017,1.018H8.172l8.741,9.136.051.064c-.01.011-.022.025-.038.042l-6.665,6.668a.233.233,0,0,1-.149.057.191.191,0,0,1-.145-.052L1.017,7.784Z" fill="#8693a5"/>
  </g>
</svg>
