<svg xmlns="http://www.w3.org/2000/svg" width="20" height="20" viewBox="0 0 20 20">
  <g id="teams-icon" transform="translate(-1128 -621)">
    <g id="Rectangle_8411" data-name="Rectangle 8411" transform="translate(1128 621)" fill="#158bc2" stroke="#158bc2" stroke-width="0.5" opacity="0">
      <rect width="20" height="20" stroke="none"/>
      <rect x="0.25" y="0.25" width="19.5" height="19.5" fill="none"/>
    </g>
    <g id="noun-5158515" transform="translate(1065.5 411.291)">
      <path id="Path_107885" data-name="Path 107885" d="M419.477,215.988a3.488,3.488,0,1,0-3.488,3.488A3.49,3.49,0,0,0,419.477,215.988Zm-1.4,0a2.093,2.093,0,1,1-2.093-2.093A2.094,2.094,0,0,1,418.081,215.988Z" transform="translate(-343.488 0)" fill="#158bc2" fill-rule="evenodd"/>
      <path id="Path_107886" data-name="Path 107886" d="M317.849,612.5a5.349,5.349,0,0,0-5.349,5.349v.93a.7.7,0,0,0,.7.7h9.3a.7.7,0,0,0,.7-.7v-.93A5.349,5.349,0,0,0,317.849,612.5Zm0,1.4a3.953,3.953,0,0,1,3.953,3.953v.233H313.9v-.233A3.953,3.953,0,0,1,317.849,613.9Z" transform="translate(-245.349 -392.558)" fill="#158bc2" fill-rule="evenodd"/>
      <path id="Path_107887" data-name="Path 107887" d="M790.644,390.1a2.6,2.6,0,1,0-2.6,2.6A2.6,2.6,0,0,0,790.644,390.1Zm-1.4,0a1.2,1.2,0,1,1-1.2-1.2A1.2,1.2,0,0,1,789.248,390.1Z" transform="translate(-709.5 -171.744)" fill="#158bc2" fill-rule="evenodd"/>
      <path id="Path_107888" data-name="Path 107888" d="M713.2,699.46h6.512a.7.7,0,0,0,.7-.7v-.819A3.949,3.949,0,0,0,716.454,694a.7.7,0,1,0,0,1.4,2.554,2.554,0,0,1,2.558,2.549v.121H713.2a.7.7,0,0,0,0,1.4Z" transform="translate(-637.907 -472.542)" fill="#158bc2" fill-rule="evenodd"/>
      <path id="Path_107889" data-name="Path 107889" d="M140.644,390.1a2.6,2.6,0,1,0-2.6,2.6A2.6,2.6,0,0,0,140.644,390.1Zm-1.4,0a1.2,1.2,0,1,1-1.2-1.2A1.2,1.2,0,0,1,139.248,390.1Z" transform="translate(-71.593 -171.744)" fill="#158bc2" fill-rule="evenodd"/>
      <path id="Path_107890" data-name="Path 107890" d="M69.709,698.065H63.9v-.121a2.554,2.554,0,0,1,2.558-2.549.7.7,0,1,0,0-1.4,3.949,3.949,0,0,0-3.954,3.944v.819a.7.7,0,0,0,.7.7h6.512a.7.7,0,1,0,0-1.4Z" transform="translate(0 -472.542)" fill="#158bc2" fill-rule="evenodd"/>
    </g>
  </g>
</svg>
