<svg id="tile-view-icon-white" xmlns="http://www.w3.org/2000/svg" width="23" height="23" viewBox="0 0 23 23">
  <rect id="Rectangle_10243" data-name="Rectangle 10243" width="23" height="23" fill="#fff" opacity="0"/>
  <g id="Group_40568" data-name="Group 40568" transform="translate(2.454 2.943)">
    <path id="Rectangle_10763" data-name="Rectangle 10763" d="M1.038-.75H5.619A1.79,1.79,0,0,1,7.407,1.038V2.351A1.79,1.79,0,0,1,5.619,4.139H1.038A1.79,1.79,0,0,1-.75,2.351V1.038A1.79,1.79,0,0,1,1.038-.75ZM5.619,2.607a.256.256,0,0,0,.255-.255V1.038A.256.256,0,0,0,5.619.783H1.038a.256.256,0,0,0-.255.255V2.351a.256.256,0,0,0,.255.255Z" transform="translate(0.75 0.75)" fill="#fff"/>
    <path id="Rectangle_10767" data-name="Rectangle 10767" d="M1.038-.75H5.619A1.79,1.79,0,0,1,7.407,1.038V2.351A1.79,1.79,0,0,1,5.619,4.139H1.038A1.79,1.79,0,0,1-.75,2.351V1.038A1.79,1.79,0,0,1,1.038-.75ZM5.619,2.607a.256.256,0,0,0,.255-.255V1.038A.256.256,0,0,0,5.619.783H1.038a.256.256,0,0,0-.255.255V2.351a.256.256,0,0,0,.255.255Z" transform="translate(0.75 6.862)" fill="#fff"/>
    <path id="Rectangle_10769" data-name="Rectangle 10769" d="M1.038-.75H5.619A1.79,1.79,0,0,1,7.407,1.038V2.351A1.79,1.79,0,0,1,5.619,4.139H1.038A1.79,1.79,0,0,1-.75,2.351V1.038A1.79,1.79,0,0,1,1.038-.75ZM5.619,2.607a.256.256,0,0,0,.255-.255V1.038A.256.256,0,0,0,5.619.783H1.038a.256.256,0,0,0-.255.255V2.351a.256.256,0,0,0,.255.255Z" transform="translate(0.75 12.975)" fill="#fff"/>
    <path id="Rectangle_10764" data-name="Rectangle 10764" d="M1.038-.75H5.619A1.79,1.79,0,0,1,7.407,1.038V2.351A1.79,1.79,0,0,1,5.619,4.139H1.038A1.79,1.79,0,0,1-.75,2.351V1.038A1.79,1.79,0,0,1,1.038-.75ZM5.619,2.607a.256.256,0,0,0,.255-.255V1.038A.256.256,0,0,0,5.619.783H1.038a.256.256,0,0,0-.255.255V2.351a.256.256,0,0,0,.255.255Z" transform="translate(10.687 0.75)" fill="#fff"/>
    <path id="Rectangle_10768" data-name="Rectangle 10768" d="M1.038-.75H5.619A1.79,1.79,0,0,1,7.407,1.038V2.351A1.79,1.79,0,0,1,5.619,4.139H1.038A1.79,1.79,0,0,1-.75,2.351V1.038A1.79,1.79,0,0,1,1.038-.75ZM5.619,2.607a.256.256,0,0,0,.255-.255V1.038A.256.256,0,0,0,5.619.783H1.038a.256.256,0,0,0-.255.255V2.351a.256.256,0,0,0,.255.255Z" transform="translate(10.687 6.862)" fill="#fff"/>
    <path id="Rectangle_10770" data-name="Rectangle 10770" d="M1.038-.75H5.619A1.79,1.79,0,0,1,7.407,1.038V2.351A1.79,1.79,0,0,1,5.619,4.139H1.038A1.79,1.79,0,0,1-.75,2.351V1.038A1.79,1.79,0,0,1,1.038-.75ZM5.619,2.607a.256.256,0,0,0,.255-.255V1.038A.256.256,0,0,0,5.619.783H1.038a.256.256,0,0,0-.255.255V2.351a.256.256,0,0,0,.255.255Z" transform="translate(10.687 12.975)" fill="#fff"/>
  </g>
</svg>
