<svg xmlns="http://www.w3.org/2000/svg"  viewBox="0 0 101.012 75.261">
  <g id="upstream-icon-small-black" transform="translate(0.5 0.5)">
    <g id="upstream-small-icon-black">
      <path id="Path_38731" data-name="Path 38731" d="M-2611.736-654.974a37.121,37.121,0,0,0,34.276-39.76,37.118,37.118,0,0,0-37.04-34.378,37.159,37.159,0,0,0-37,34.407h-25.8c-.011.447-.065.88-.065,1.327,0,1.393.113,2.756.207,4.127h25.65A37.121,37.121,0,0,0-2611.736-654.974Zm-2.764-68.683a31.687,31.687,0,0,1,31.688,31.683,31.72,31.72,0,0,1-31.688,31.683,31.683,31.683,0,0,1-31.683-31.683A31.686,31.686,0,0,1-2614.5-723.658Z" transform="translate(2677.357 729.112)" fill="#158bc2" stroke="#f3f5f6" stroke-width="1"/>
      <path id="Path_38730" data-name="Path 38730" d="M-2643.692-679.927a22.6,22.6,0,0,0,22.6-22.592,22.622,22.622,0,0,0-22.6-22.593,22.594,22.594,0,0,0-22.592,22.593A22.6,22.6,0,0,0-2643.692-679.927Zm0-39.73a17.141,17.141,0,0,1,17.143,17.138,17.161,17.161,0,0,1-17.143,17.138,17.14,17.14,0,0,1-17.137-17.138A17.142,17.142,0,0,1-2643.692-719.657Z" transform="translate(2706.549 739.657)" fill="#158bc2" stroke="#f3f5f6" stroke-width="1"/>
      <path id="Path_38732" data-name="Path 38732" d="M-2654.238-705.018a8.049,8.049,0,0,0,8.051-8.047,8.061,8.061,0,0,0-8.051-8.047,8.048,8.048,0,0,0-8.047,8.047A8.051,8.051,0,0,0-2654.238-705.018Zm0-10.64a2.6,2.6,0,0,1,2.6,2.593,2.6,2.6,0,0,1-2.6,2.593,2.593,2.593,0,0,1-2.592-2.593A2.6,2.6,0,0,1-2654.238-715.658Z" transform="translate(2717.095 750.203)" fill="#158bc2" stroke="#f3f5f6" stroke-width="1"/>
    </g>
    <g id="upstream-small-icon" transform="translate(0 0.007)">
      <path id="Path_38730-2" data-name="Path 38730" d="M-2643.692-679.927a22.6,22.6,0,0,0,22.6-22.592,22.622,22.622,0,0,0-22.6-22.593,22.594,22.594,0,0,0-22.592,22.593A22.6,22.6,0,0,0-2643.692-679.927Zm0-39.73a17.141,17.141,0,0,1,17.143,17.138,17.161,17.161,0,0,1-17.143,17.138,17.14,17.14,0,0,1-17.137-17.138A17.142,17.142,0,0,1-2643.692-719.657Z" transform="translate(2706.549 739.657)" fill="#158bc2" stroke="#f3f5f6" stroke-width="1"/>
      <path id="Path_38731-2" data-name="Path 38731" d="M-2611.736-654.974a37.121,37.121,0,0,0,34.276-39.76,37.118,37.118,0,0,0-37.04-34.378,37.159,37.159,0,0,0-37,34.407h-25.8c-.011.447-.065.88-.065,1.327,0,1.393.113,2.756.207,4.127h25.65A37.121,37.121,0,0,0-2611.736-654.974Zm-2.764-68.683a31.687,31.687,0,0,1,31.688,31.683,31.72,31.72,0,0,1-31.688,31.683,31.683,31.683,0,0,1-31.683-31.683A31.686,31.686,0,0,1-2614.5-723.658Z" transform="translate(2677.357 729.112)" fill="#158bc2" stroke="#f3f5f6" stroke-width="1"/>
      <path id="Path_38732-2" data-name="Path 38732" d="M-2654.238-705.018a8.049,8.049,0,0,0,8.051-8.047,8.061,8.061,0,0,0-8.051-8.047,8.048,8.048,0,0,0-8.047,8.047A8.051,8.051,0,0,0-2654.238-705.018Zm0-10.64a2.6,2.6,0,0,1,2.6,2.593,2.6,2.6,0,0,1-2.6,2.593,2.593,2.593,0,0,1-2.592-2.593A2.6,2.6,0,0,1-2654.238-715.658Z" transform="translate(2717.095 750.203)" fill="#158bc2" stroke="#f3f5f6" stroke-width="1"/>
    </g>
  </g>
</svg>
