<svg id="User_icon" data-name="User icon" xmlns="http://www.w3.org/2000/svg" width="23" height="23" viewBox="0 0 23 23">
  <g id="Rectangle_8411" data-name="Rectangle 8411" fill="#158bc2" stroke="#158bc2" stroke-width="0.5" opacity="0">
    <rect width="23" height="23" stroke="none"/>
    <rect x="0.25" y="0.25" width="22.5" height="22.5" fill="none"/>
  </g>
  <g id="member-icon" transform="translate(2.468 2.468)">
    <path id="Path_38338" data-name="Path 38338" d="M14.032,55C8.974,55,5,56.987,5,59.516v3.011a.5.5,0,0,0,.5.5h17.06a.5.5,0,0,0,.5-.5V59.516C23.064,56.987,19.09,55,14.032,55Zm8.028,7.025H6V59.516C6,57.81,9.235,56,14.032,56s8.028,1.806,8.028,3.512Z" transform="translate(-5 -44.964)" fill="#158bc2" stroke="#158bc2" stroke-width="0.5"/>
    <path id="Path_38339" data-name="Path 38339" d="M36.532,9.516a4.516,4.516,0,1,0-4.516,4.516A4.523,4.523,0,0,0,36.532,9.516Zm-8.028,0a3.512,3.512,0,1,1,3.512,3.512A3.529,3.529,0,0,1,28.5,9.516Z" transform="translate(-22.984 -5)" fill="#158bc2" stroke="#158bc2" stroke-width="0.5"/>
  </g>
</svg>
