<svg id="warning-exclaimation" xmlns="http://www.w3.org/2000/svg" width="102.162" height="102.161" viewBox="0 0 102.162 102.161">
  <g id="Group_4032" data-name="Group 4032">
    <g id="Ellipse_11" data-name="Ellipse 11" fill="none" stroke="#d75b1d" stroke-width="3">
      <circle cx="51.081" cy="51.081" r="51.081" stroke="none"/>
      <circle cx="51.081" cy="51.081" r="49.581" fill="none"/>
    </g>
  </g>
  <path id="noun_Warning_1561667_000000" d="M40.4,29.757A1.521,1.521,0,0,0,38.742,31.1V68.745a1.692,1.692,0,0,0,3.312,0V31.1A1.521,1.521,0,0,0,40.4,29.757Zm0,51.087a1.521,1.521,0,0,0-1.656,1.344v2.689a1.692,1.692,0,0,0,3.312,0V82.189A1.521,1.521,0,0,0,40.4,80.844Z" transform="translate(10.36 -6.909)" fill="#d75b1d"/>
</svg>
