<svg xmlns="http://www.w3.org/2000/svg" viewBox="0 0 56 56">
  <g id="admin-settings-icon" transform="translate(0 -0.03)">
    <g id="Rectangle_8702" data-name="Rectangle 8702" transform="translate(0 0.03)" fill="#158bc2" stroke="#f3f5f7" stroke-width="0.5" opacity="0">
      <rect width="56" height="56" stroke="none"/>
      <rect x="0.25" y="0.25" width="55.5" height="55.5" fill="none"/>
    </g>
    <path id="Subtraction_35" data-name="Subtraction 35" d="M-4703.136,12374.027h-9.317a1.308,1.308,0,0,1-1.3-1.308v-5.761l-.177-.056a21.011,21.011,0,0,1-4.084-1.692l-.165-.087-4.065,4.074a1.3,1.3,0,0,1-.922.382,1.294,1.294,0,0,1-.919-.382l-6.59-6.6a1.306,1.306,0,0,1,0-1.845l4.065-4.074-.087-.165a21.375,21.375,0,0,1-1.689-4.087l-.053-.18h-5.755a1.306,1.306,0,0,1-1.3-1.308v-9.333a1.305,1.305,0,0,1,1.3-1.307h5.755l.053-.181a21.359,21.359,0,0,1,1.689-4.087l.087-.164-4.065-4.075a1.3,1.3,0,0,1-.382-.925,1.289,1.289,0,0,1,.382-.92l6.59-6.6a1.294,1.294,0,0,1,.919-.382,1.3,1.3,0,0,1,.922.382l4.068,4.075.165-.091a21.2,21.2,0,0,1,4.081-1.689l.177-.056v-5.761a1.308,1.308,0,0,1,1.3-1.308h9.32a1.306,1.306,0,0,1,1.3,1.308v5.761l.18.056a21.357,21.357,0,0,1,4.081,1.689l.165.091,4.068-4.075a1.294,1.294,0,0,1,.919-.382,1.3,1.3,0,0,1,.922.382l6.59,6.6a1.289,1.289,0,0,1,.382.92,1.3,1.3,0,0,1-.382.925l-4.065,4.075.087.164a21.324,21.324,0,0,1,1.689,4.09l.053.178h5.751a1.307,1.307,0,0,1,1.3,1.307v9.333a1.308,1.308,0,0,1-1.3,1.308h-5.751l-.053.18a21.58,21.58,0,0,1-1.689,4.087l-.09.165,4.068,4.074a1.309,1.309,0,0,1,0,1.845l-6.587,6.6a1.308,1.308,0,0,1-.922.382,1.308,1.308,0,0,1-.922-.382l-4.065-4.074-.165.087a21.039,21.039,0,0,1-4.081,1.692l-.18.056v5.761A1.308,1.308,0,0,1-4703.136,12374.027Zm-7.941-16.019-5.165,5.174.316.152a18.876,18.876,0,0,0,3.771,1.345,1.3,1.3,0,0,1,1.006,1.271v5.466h6.711v-5.466a1.3,1.3,0,0,1,1-1.271,18.812,18.812,0,0,0,5.553-2.3,1.278,1.278,0,0,1,.687-.2,1.284,1.284,0,0,1,.919.382l3.857,3.863,4.749-4.755-3.857-3.863a1.3,1.3,0,0,1-.187-1.611,18.785,18.785,0,0,0,2.3-5.56,1.3,1.3,0,0,1,1.267-1.006h5.457v-6.724h-5.457a1.3,1.3,0,0,1-1.267-1.006,18.823,18.823,0,0,0-2.3-5.56,1.3,1.3,0,0,1,.187-1.611l3.857-3.863-4.749-4.755-3.857,3.863a1.284,1.284,0,0,1-.919.382,1.3,1.3,0,0,1-.687-.192,18.763,18.763,0,0,0-5.553-2.3,1.3,1.3,0,0,1-1-1.27v-5.466h-6.711v5.466a1.3,1.3,0,0,1-1,1.27,18.773,18.773,0,0,0-5.553,2.3,1.318,1.318,0,0,1-.687.2,1.3,1.3,0,0,1-.922-.385l-3.857-3.863-4.746,4.755,3.857,3.863a1.307,1.307,0,0,1,.186,1.611,18.769,18.769,0,0,0-2.3,5.56,1.3,1.3,0,0,1-1.267,1.006h-5.457v6.724h5.457a1.3,1.3,0,0,1,1.267,1.006,18.84,18.84,0,0,0,1.341,3.777l.152.319,5.168-5.174-.041-.14a12.214,12.214,0,0,1-.419-3.149,12.2,12.2,0,0,1,12.174-12.2,12.15,12.15,0,0,1,6.314,1.779l.009.006.013.008.011.007.016.011a1.821,1.821,0,0,1,.811,1.577,1.8,1.8,0,0,1-.907,1.513l-4.981,2.882.019,3.661,3.155,1.845,4.984-2.882a1.8,1.8,0,0,1,.9-.245,1.813,1.813,0,0,1,.873.227,1.816,1.816,0,0,1,.944,1.516l0,.071v.006c0,.018,0,.036,0,.055v.023c0,.043,0,.092,0,.14a12.2,12.2,0,0,1-12.177,12.2,12.048,12.048,0,0,1-3.143-.423l-.14-.037Zm3.282-21.323a9.589,9.589,0,0,0-9.568,9.587,9.508,9.508,0,0,0,.565,3.211,1.312,1.312,0,0,1-.308,1.36l-10.811,10.829,4.746,4.755,10.813-10.829a1.284,1.284,0,0,1,.919-.382,1.351,1.351,0,0,1,.438.074,9.491,9.491,0,0,0,3.2.565,9.561,9.561,0,0,0,6.165-2.258,9.619,9.619,0,0,0,3.251-5.611l.1-.531-4.4,2.547a1.32,1.32,0,0,1-.652.174,1.284,1.284,0,0,1-.655-.178l-4.457-2.6a1.309,1.309,0,0,1-.646-1.121l-.022-5.167a1.312,1.312,0,0,1,.652-1.137l4.391-2.537-.5-.184A9.453,9.453,0,0,0-4707.794,12336.686Z" transform="translate(4735.77 -12318.266)" fill="#158bc2"/>
  </g>
</svg>
